PathFileType	4	(X/Y/Z)	C:\Users\WrightLab\Desktop\Jo\P4V16.trc
DataRate	CameraRate	NumFrames	NumMarkers	Units	OrigDataRate	OrigDataStartFrame	OrigNumFrames
100.00	100.00	       20	19	mm	100.00	132	       525
Frame#	Time	Headset_Front			Headset_Back			Headset_Left			Headset_Right			Left_Shoulder			Right_Shoulder			Sternum			C7			Left Elbow			Right Elbow			Left Wrist			Right Wrist			Left ASIS			Right ASIS			S2			Left Knee			Right Knee			Left Ankle			Right Ankle			
		X1	Y1	Z1	X2	Y2	Z2	X3	Y3	Z3	X4	Y4	Z4	X5	Y5	Z5	X6	Y6	Z6	X7	Y7	Z7	X8	Y8	Z8	X9	Y9	Z9	X10	Y10	Z10	X11	Y11	Z11	X12	Y12	Z12	X13	Y13	Z13	X14	Y14	Z14	X15	Y15	Z15	X16	Y16	Z16	X17	Y17	Z17	X18	Y18	Z18	X19	Y19	Z19	

132	1.310	-689.63605	1750.77161	-641.86548	-1003.59155	122.54220	-498.53531							-530.47601	1505.15112	-528.53003	-835.46466	1500.67175	-568.29340	-685.41016	1450.24304	-435.95920	-678.28583	1533.04968	-605.68488	-436.02295	1182.87451	-373.41431	-994.52551	1160.92078	-554.18353	-601.68811	1012.53845	-170.63715	-1025.19202	904.83502	-394.76431	-538.38959	982.16846	-451.28516	-870.21283	1045.22302	-425.17526	-697.72815	1029.78687	-625.76666	-651.25781	503.89722	-491.19974	-954.57672	595.92017	-309.93378	-798.35132	35.71024	-634.01013				
133	1.320	-689.19159	1750.83374	-631.85895	-1003.98865	115.08875	-463.11475							-529.75372	1505.04321	-520.03027	-835.76495	1501.51672	-557.03583	-684.02631	1449.40417	-426.75674	-678.61871	1532.87378	-596.16931	-435.61560	1182.66357	-365.89700	-995.01080	1161.47107	-546.31378	-603.98828	1017.68738	-160.31857	-1027.01917	903.32654	-390.55780	-538.93439	981.59467	-446.10538	-867.52808	1043.50586	-413.07013	-700.96289	1029.93994	-617.73383	-650.37378	503.90305	-490.63885	-947.48022	595.34222	-294.48514	-798.30939	36.18262	-633.75476				
134	1.330	-688.90283	1750.48376	-621.17944	-1003.57788	107.07727	-426.13309							-528.31317	1503.24731	-513.38043	-835.29877	1501.11328	-545.41974	-681.99420	1448.33557	-417.40598	-678.85602	1532.56909	-586.81049	-435.07251	1183.04114	-359.23978	-994.95172	1162.17017	-538.06659	-605.15051	1023.45282	-150.76701	-1027.93518	901.93665	-386.47836	-537.37097	981.36127	-441.92026	-866.07019	1043.59229	-401.59915	-703.47144	1029.81848	-609.27533	-649.75952	504.18710	-489.97528	-941.96893	594.11206	-280.31628	-798.36652	36.50126	-633.87958				
135	1.340	-688.45959	1750.35901	-611.55133	-1000.25232	101.12502	-391.48138							-528.41278	1503.63501	-506.30637	-835.22797	1501.26648	-533.57214	-680.49066	1447.67017	-408.26328	-679.11658	1532.07288	-576.96826	-434.81073	1182.26440	-351.47064	-994.83875	1162.25098	-529.95215	-607.17523	1028.05933	-141.09137	-1029.11646	900.54205	-382.55383	-537.26996	980.70563	-435.64233	-863.99530	1042.92712	-390.29822	-706.22906	1030.20667	-600.86700	-649.40442	503.77710	-488.10226	-936.20142	593.55243	-267.06006	-799.16156	36.44493	-634.13824				
136	1.350	-687.97382	1750.11060	-600.90887	-996.05249	94.84274	-355.50864							-528.06750	1502.18921	-497.56613	-834.77283	1501.47009	-521.94495	-677.26563	1447.00659	-397.25607	-679.12518	1531.85376	-567.61499	-434.03601	1181.15588	-344.23386	-994.74457	1162.41357	-521.32458	-608.03503	1032.27637	-131.77257	-1030.69055	898.67896	-377.89548	-536.45227	979.99261	-430.09805	-862.11993	1041.43311	-378.57153	-708.41016	1029.78577	-591.79553	-649.17035	503.75699	-487.60815	-930.77332	592.32721	-252.78793	-800.23419	37.28862	-634.29199				
137	1.360	-687.36603	1749.94202	-590.21100	-990.10547	88.65509	-320.65344							-527.24597	1500.79114	-490.70538	-834.16144	1501.58459	-510.65277	-676.61041	1445.40210	-388.55121	-679.07178	1531.24207	-558.41693	-433.85785	1180.31042	-336.68344	-994.72192	1163.08020	-512.89001	-609.38953	1036.00330	-123.05669	-1030.89526	896.62738	-372.69659	-535.58667	979.43744	-424.70795	-860.69604	1039.98767	-367.25146	-710.44098	1029.11060	-582.22070	-648.73792	503.85141	-485.38797	-924.21948	591.24561	-240.27238	-800.15698	38.07036	-634.32526				
138	1.370	-686.69177	1749.56885	-579.59509	-982.07672	83.26331	-286.75735							-526.30139	1499.07239	-480.99124	-833.97308	1501.59106	-498.88431	-674.32336	1444.80701	-379.05823	-678.96399	1530.56860	-548.51453	-432.81735	1178.82263	-329.83865	-994.22534	1163.79041	-504.50406	-610.41803	1039.61853	-114.02386	-1031.30139	895.41815	-368.91660	-535.47314	977.93823	-418.90408	-858.58252	1038.51563	-354.25754	-712.24274	1028.66528	-573.44055	-648.63275	504.08774	-482.20511	-918.72107	589.49799	-227.44307	-801.33740	38.53611	-634.33710				
139	1.380	-685.98944	1749.01245	-569.12524	-972.27838	78.52407	-252.96570							-525.83862	1497.21643	-476.97488	-832.93829	1500.91772	-487.70291	-672.99847	1443.53577	-369.89655	-678.86212	1529.52661	-538.72626	-432.43198	1178.08044	-322.42328	-993.79962	1163.59839	-495.18304	-610.99097	1042.55554	-105.65620	-1031.83667	893.23041	-363.59113	-534.08398	977.70886	-413.00995	-858.25940	1036.63660	-343.60126	-714.37598	1028.85815	-565.21112	-648.54230	503.47073	-479.85492	-913.99323	589.03296	-214.77399	-801.18103	39.46838	-633.57562				
140	1.390	-685.17004	1748.39783	-558.54181	-961.77472	74.59344	-220.00566							-525.10602	1495.95850	-466.34604	-832.47351	1500.92859	-476.33740	-670.28223	1442.16272	-359.73993	-678.58130	1528.39441	-529.19739	-431.54453	1176.48499	-315.61469	-993.52460	1163.34692	-485.48526	-610.62042	1045.04114	-97.45668	-1032.38159	890.94836	-357.75409	-533.91583	975.49957	-406.61658	-856.53876	1035.73853	-332.00870	-716.24115	1028.19702	-555.98694	-648.70355	502.59589	-475.63724	-908.11200	586.76392	-204.20171	-801.23718	39.68872	-633.49945				
141	1.400	-684.33698	1747.46863	-547.97430	-949.68164	70.72482	-187.15279							-523.87103	1494.25061	-459.75488	-831.23077	1499.48865	-464.77460	-669.00409	1440.95313	-350.50052	-677.74738	1526.58081	-519.56610	-430.34036	1175.05493	-307.48349	-993.06366	1163.34363	-475.86511	-609.96063	1046.77625	-87.58300	-1032.47205	889.31934	-352.78357	-533.17773	974.48999	-399.73831	-855.58118	1033.96912	-321.39526	-717.40082	1027.07520	-546.04456	-649.03003	501.86612	-470.96664	-902.74579	584.47754	-194.55127	-800.75879	41.05878	-633.98462				
142	1.410	-683.57745	1746.37781	-537.46454	-936.76819	68.69592	-157.22514							-521.81104	1491.93286	-449.55222	-830.30127	1498.89661	-453.04724	-667.09332	1438.10327	-342.56436	-677.83240	1525.65662	-509.42218	-429.76694	1172.43701	-300.40826	-992.22412	1163.03638	-465.87540	-609.66925	1047.69849	-78.81928	-1031.95862	887.65839	-347.34674	-532.93579	973.09131	-392.78940	-853.05786	1031.34509	-310.40729	-718.55981	1025.56628	-537.20984	-649.71863	501.10321	-466.07758	-897.58148	582.38672	-183.59727	-801.64874	41.12714	-632.91345				
143	1.420	-682.69641	1745.29224	-526.72839	-923.57434	66.67145	-126.88982							-521.77832	1490.31946	-443.48956	-829.28052	1498.35547	-441.61938	-665.66418	1437.84375	-331.26929	-676.92291	1524.26868	-499.85211	-427.63049	1170.07410	-293.29214	-991.91620	1162.08032	-455.64645	-609.12451	1048.63501	-71.21090	-1031.42944	884.43481	-339.75946	-532.09607	971.43494	-385.47787	-851.69879	1029.82373	-299.22507	-719.80188	1024.49707	-527.38043	-650.29987	499.65976	-461.16180	-892.21429	579.64764	-174.15610	-802.23181	42.75291	-632.13593				
144	1.430	-681.65167	1743.93542	-516.16302	-909.59167	65.56293	-98.61518							-520.00928	1487.34009	-432.91788	-828.10272	1496.94788	-430.43237	-662.60187	1435.44946	-323.09686	-676.07300	1522.81738	-489.35739	-426.37677	1168.27051	-286.79660	-990.55084	1161.76294	-446.03036	-607.84686	1049.66614	-62.70177	-1030.66260	882.52490	-333.81287	-531.65564	969.38049	-378.20508	-850.26721	1027.77405	-288.15421	-720.87451	1023.55273	-517.92273	-650.54401	499.03738	-455.47897	-886.91077	576.64618	-162.73689	-802.32251	43.63387	-631.79163				
145	1.440	-680.65613	1742.59485	-505.68463	-896.23065	65.50595	-71.33145							-518.44141	1486.10229	-425.21552	-826.56714	1495.71399	-418.11530				-675.44995	1521.82629	-479.55042	-424.50656	1165.78369	-278.97055	-990.01166	1160.84875	-434.94107	-606.40411	1049.36218	-53.43877	-1029.81836	880.64154	-327.76855	-530.51544	969.47992	-370.66382	-848.84192	1025.68481	-275.71381	-721.69592	1021.74438	-508.30103	-650.88098	498.95032	-450.57962	-881.37402	573.77722	-154.19371	-801.31555	45.93483	-630.05127				
146	1.450	-679.44708	1741.01709	-495.50214										-517.05060	1484.25269	-416.78894	-825.29315	1494.73499	-407.55850	-658.15765	1433.08838	-301.71521	-674.49847	1520.32385	-469.62933	-423.58716	1163.55188	-271.28439	-988.83728	1159.99585	-424.73929	-606.93024	1050.83948	-47.69191	-1029.38306	878.10474	-319.57230	-530.42261	967.18915	-362.70718	-847.59546	1023.41565	-265.26883	-722.64087	1020.09314	-498.03238	-650.30597	499.04730	-444.92615	-876.43610	571.63397	-144.18396	-802.76129	46.06829	-629.83350				
147	1.460	-678.15521	1739.54773	-485.05258	-547.49396	1618.62073	-164.50168							-515.64648	1481.69690	-409.89642	-823.61163	1493.56860	-395.16019	-655.28552	1431.11926	-291.67468	-673.16785	1519.32776	-458.78253	-421.67786	1161.11523	-264.18814	-987.70831	1159.40552	-413.26413	-605.60748	1049.37634	-39.30816	-1029.65002	876.36548	-312.52463	-529.60358	966.51672	-353.67490	-846.13568	1021.85925	-253.06291	-723.73407	1019.70386	-486.62900	-649.42804	498.20572	-439.32657	-870.03387	566.98230	-135.67194	-803.23376	48.10625	-629.19983				
148	1.470	-676.81000	1738.06458	-474.61258	-545.28430	1617.23486	-154.25629							-513.88953	1479.70337	-400.86371	-821.36597	1492.01233	-382.66913	-651.74530	1429.28162	-281.94922	-672.09906	1517.85095	-448.93839	-420.37805	1158.69739	-256.86783	-986.25861	1158.40381	-402.14017	-600.36230	1046.08447	-28.43274	-1028.56091	874.46277	-304.67844	-528.95038	965.28333	-346.03860	-844.11285	1019.96667	-240.44160	-724.51221	1018.61682	-476.33075	-648.49158	497.84235	-434.19403	-863.82544	563.72760	-125.52406	-802.30511	50.10371	-628.80438				
149	1.480	-675.25116	1736.89819	-463.86877	-542.99976	1615.92712	-143.87032							-511.90225	1477.54736	-394.53149	-819.86340	1491.33203	-371.98535	-650.70221	1425.81714	-275.14032	-670.24268	1516.52502	-437.98978	-418.85260	1155.61877	-248.81345	-984.99933	1157.75562	-390.94156	-596.34534	1044.31494	-19.56271	-1028.13342	872.70642	-296.43756	-527.87781	964.34595	-337.08344	-842.08057	1018.93433	-229.04903	-725.17615	1017.74561	-465.37790	-647.10278	497.43146	-428.21576	-859.16693	562.00903	-115.13079	-801.02106	52.39670	-627.55609				
150	1.490	-673.62396	1735.82239	-453.95163	-540.75293	1614.47412	-133.02145							-510.46902	1475.85132	-384.78543	-818.23499	1490.32629	-360.35233	-647.31085	1424.27075	-264.68759	-669.12952	1515.22986	-428.32257	-416.41324	1153.74866	-241.38733	-983.07288	1156.47327	-378.51218	-593.64880	1041.99268	-11.55659	-1025.88416	870.87427	-286.65814	-527.19934	964.49365	-328.88541	-839.97601	1018.02258	-217.30031	-725.89111	1016.78363	-454.20755	-645.43115	498.12790	-423.01196	-853.26770	559.44055	-103.90045	-801.29504	54.02915	-626.40082				
151	1.500	-671.91022	1734.67932	-443.23608	-538.33649	1612.91479	-122.10261							-507.42770	1474.16895	-372.89905	-816.00592	1489.55981	-347.71249	-645.53418	1423.17358	-254.37077	-667.56848	1514.13928	-418.03653	-414.58630	1151.33582	-234.10681	-982.56323	1156.50452	-366.57986	-590.30646	1039.02844	-3.15361	-1024.18250	868.92688	-276.86169	-525.97791	963.80054	-320.54312	-837.67175	1016.72052	-204.80226	-726.64709	1015.61804	-442.91965	-643.15112	497.95508	-416.83371	-846.59033	557.82550	-91.39636	-800.94604	55.85599	-625.27667				
